<svg width="209" height="190" viewBox="0 0 209 190" fill="none" xmlns="http://www.w3.org/2000/svg">
<path fill-rule="evenodd" clip-rule="evenodd" d="M68 123.852C68 119.966 72.2498 117.546 75.5987 119.517C72.2453 117.543 68 119.961 68 123.852Z" fill="#5400A9"/>
<path d="M0 120L68 162V123.852C68 119.966 72.2498 117.546 75.5987 119.517C79.913 122.056 84.8796 124.984 89.5 127.575C96.3346 131.407 100 134.5 104.5 134.5L104.5 115L0 60V99.3622C0 102.99 1.35214 106.487 3.7924 109.172C4.59444 110.054 5.50165 110.834 6.49372 111.496L14 116.5L0 120Z" fill="#6400CA"/>
<path d="M45.117 25.7374C25.5636 13.6084 0 27.4282 0 50.4379V60L104.5 115L104.5 57.9982C104.5 57.9982 100 59 45.117 25.7374Z" fill="#7F00FF"/>
<path d="M68 162L0 120V147.267C0 156.182 5.38007 164.215 13.6235 167.61L44.5272 180.335C55.7162 184.942 68 176.716 68 164.615V162Z" fill="#5400A9"/>
<path d="M104.5 106.5V117C102.205 117 99.9484 116.412 97.9455 115.291L7.62939e-06 60.5C7.62939e-06 59.5219 0.289519 58.5657 0.832058 57.7519L1.00001 57.5L1.31378 57.147C3.55006 54.6312 7.07047 53.6902 10.2638 54.7546C10.7534 54.9178 11.2256 55.1291 11.6736 55.3854L97.9622 104.762C99.9528 105.901 102.207 106.5 104.5 106.5Z" fill="#5201A5"/>
<path d="M68 150.84V162.5L7.62939e-06 120.5V120C0.0878019 118.863 0.462552 117.923 0.980263 117.088C2.91782 113.963 7.60597 113.086 11 114.5L68 150.84Z" fill="#370076"/>
<path fill-rule="evenodd" clip-rule="evenodd" d="M141 123.852C141 119.966 136.75 117.546 133.401 119.517C136.755 117.543 141 119.961 141 123.852Z" fill="#5400A9"/>
<path d="M209 120L141 162V123.852C141 119.966 136.75 117.546 133.401 119.517C129.087 122.056 124.12 124.984 119.5 127.575C112.665 131.407 109 134.5 104.5 134.5L104.5 115L209 60V99.3622C209 102.99 207.648 106.487 205.208 109.172C204.406 110.054 203.498 110.834 202.506 111.496L195 116.5L209 120Z" fill="#6400CA"/>
<path d="M163.883 25.7374C183.436 13.6084 209 27.4282 209 50.4379V60L104.5 115L104.5 57.9982C104.5 57.9982 109 59 163.883 25.7374Z" fill="#7F00FF"/>
<path d="M141 162L209 120V147.267C209 156.182 203.62 164.215 195.377 167.61L164.473 180.335C153.284 184.942 141 176.716 141 164.615V162Z" fill="#5400A9"/>
<path d="M104.5 106.5V117C106.795 117 109.052 116.412 111.055 115.291L209 60.5C209 59.5219 208.71 58.5657 208.168 57.7519L208 57.5L207.686 57.147C205.45 54.6312 201.93 53.6902 198.736 54.7546C198.247 54.9178 197.774 55.1291 197.326 55.3854L111.038 104.762C109.047 105.901 106.794 106.5 104.5 106.5Z" fill="#5201A5"/>
<path d="M141 150.84V162.5L209 120.5V120C208.912 118.863 208.537 117.923 208.02 117.088C206.082 113.963 201.394 113.086 198 114.5L141 150.84Z" fill="#370076"/>
</svg>
