<svg width="614" height="109" viewBox="0 0 614 109" fill="none" xmlns="http://www.w3.org/2000/svg">
<g clip-path="url(#clip0_1_2)">
<path d="M156.943 89V82.7572C159.603 82.7572 161.214 81.9749 161.777 80.4103C162.341 78.8144 162.622 76.7492 162.622 74.2145V58.0678C162.622 56.8787 162.654 55.5801 162.716 54.172C162.779 52.7325 162.873 51.2931 162.998 49.8537C161.996 49.9163 160.792 49.9789 159.384 50.0414C157.975 50.0727 156.943 50.1197 156.286 50.1823V42.8599C159.227 42.8599 161.715 42.7035 163.749 42.3905C165.783 42.0776 167.394 41.7021 168.583 41.264C169.804 40.8259 170.633 40.4035 171.071 39.9967H175.765C175.859 40.6538 175.937 41.4674 176 42.4375C176.094 43.3762 176.156 44.1585 176.187 44.7844C178.347 43.1259 180.678 41.8116 183.181 40.8416C185.716 39.8715 188.125 39.3865 190.41 39.3865C193.351 39.3865 195.776 39.9185 197.685 40.9824C199.625 42.015 201.174 43.5953 202.332 45.7231C204.647 43.783 207.198 42.2497 209.983 41.1232C212.768 39.9654 215.428 39.3865 217.962 39.3865C223.188 39.3865 227.115 40.8885 229.744 43.8926C232.403 46.8653 233.733 52.0285 233.733 59.3821V73.5105C233.733 74.4179 233.702 75.7009 233.64 77.3594C233.608 78.9866 233.514 80.5199 233.358 81.9593C234.359 81.8654 235.486 81.8028 236.737 81.7715C237.989 81.709 238.944 81.6777 239.601 81.6777V89H215.287V82.7572C216.757 82.7572 217.837 82.3974 218.525 81.6777C219.214 80.958 219.652 79.9566 219.84 78.6736C220.028 77.3907 220.121 75.9043 220.121 74.2145V59.476C220.059 55.2828 219.355 52.404 218.009 50.8394C216.695 49.2748 214.958 48.4455 212.799 48.3517C211.109 48.2891 209.545 48.5707 208.105 49.1966C206.697 49.8224 205.414 50.589 204.256 51.4965C204.82 54.125 205.101 57.176 205.101 60.6494C205.101 62.8086 205.101 64.9521 205.101 67.0799C205.101 69.2078 205.101 71.3513 205.101 73.5105C205.101 74.4179 205.07 75.7009 205.007 77.3594C204.976 78.9866 204.882 80.5199 204.726 81.9593C205.727 81.8654 206.838 81.8028 208.058 81.7715C209.279 81.709 210.249 81.6777 210.968 81.6777V89H186.185V82.7572C187.812 82.7572 188.986 82.3974 189.706 81.6777C190.457 80.958 190.926 79.9566 191.114 78.6736C191.333 77.3907 191.442 75.9043 191.442 74.2145L191.348 59.1944C191.348 55.0012 190.738 52.138 189.518 50.6047C188.297 49.0714 186.608 48.2891 184.448 48.2578C182.853 48.2578 181.351 48.602 179.942 49.2904C178.566 49.9789 177.345 50.8081 176.281 51.7781C176.281 52.5917 176.281 53.4053 176.281 54.2189C176.281 55.0012 176.281 55.7992 176.281 56.6128V73.5105C176.281 74.4179 176.25 75.7009 176.187 77.3594C176.125 78.9866 176.015 80.5199 175.859 81.9593C176.86 81.8654 177.908 81.8028 179.004 81.7715C180.099 81.709 180.975 81.6777 181.632 81.6777V89H156.943ZM245.318 82.7572C247.978 82.7572 249.589 81.9749 250.152 80.4103C250.716 78.8144 250.997 76.7492 250.997 74.2145V58.2556C250.997 57.0665 251.029 55.7366 251.091 54.2659C251.154 52.7638 251.248 51.2931 251.373 49.8537C250.371 49.9163 249.167 49.9789 247.759 50.0414C246.35 50.0727 245.318 50.1197 244.661 50.1823V42.8599C249.073 42.8599 252.468 42.5314 254.846 41.8742C257.224 41.2171 258.758 40.5912 259.446 39.9967H264.656V73.5105C264.656 74.4179 264.625 75.7009 264.562 77.3594C264.5 78.9866 264.39 80.5199 264.234 81.9593C265.235 81.8654 266.362 81.8028 267.613 81.7715C268.865 81.709 269.835 81.6777 270.524 81.6777V89H245.318V82.7572ZM257.334 32.3927C255.143 32.3927 253.344 31.6261 251.936 30.0928C250.528 28.5282 249.824 26.6663 249.824 24.5071C249.824 22.348 250.559 20.5018 252.03 18.9685C253.532 17.4039 255.269 16.6216 257.24 16.6216C259.305 16.6216 261.011 17.4039 262.356 18.9685C263.733 20.5018 264.422 22.348 264.422 24.5071C264.422 26.6663 263.78 28.5282 262.497 30.0928C261.214 31.6261 259.493 32.3927 257.334 32.3927ZM275.269 82.7572C277.084 82.7572 278.382 82.3974 279.165 81.6777C279.947 80.958 280.432 79.9566 280.62 78.6736C280.839 77.3907 280.948 75.9043 280.948 74.2145V34.6927C280.948 33.5349 280.98 32.205 281.042 30.703C281.105 29.1697 281.199 27.7146 281.324 26.3377C280.323 26.369 279.118 26.416 277.71 26.4785C276.333 26.5098 275.3 26.5568 274.612 26.6194V19.297C279.086 19.297 282.497 18.9685 284.844 18.3113C287.222 17.6542 288.74 17.0284 289.397 16.4338H294.607V73.5105C294.607 74.4179 294.576 75.7009 294.513 77.3594C294.482 78.9866 294.388 80.5199 294.232 81.9593C295.296 81.8654 296.422 81.8028 297.611 81.7715C298.832 81.709 299.786 81.6777 300.475 81.6777V89H275.269V82.7572ZM325.358 90.549C321.509 90.549 318.13 89.5476 315.22 87.5449C312.31 85.5422 310.041 82.726 308.414 79.0961C306.787 75.4349 305.973 71.1479 305.973 66.2351C305.973 61.0719 306.959 56.4719 308.93 52.4353C310.901 48.3673 313.671 45.1755 317.238 42.8599C320.837 40.5443 325.014 39.3865 329.77 39.3865C331.523 39.3865 333.087 39.5743 334.464 39.9498C335.872 40.294 337.171 40.6851 338.36 41.1232V34.7866C338.36 33.8791 338.391 32.6118 338.454 30.9846C338.517 29.3261 338.61 27.7772 338.736 26.3377C337.672 26.4316 336.436 26.5098 335.028 26.5724C333.619 26.6037 332.571 26.6194 331.883 26.6194V19.297C336.357 19.297 339.768 18.9685 342.115 18.3113C344.493 17.6542 346.027 17.0284 346.715 16.4338H351.878V73.5105C351.878 74.4179 351.847 75.7009 351.784 77.3594C351.753 78.9866 351.659 80.5199 351.503 81.9593C352.567 81.8654 353.709 81.8028 354.929 81.7715C356.15 81.709 357.088 81.6777 357.746 81.6777V89H339.487C339.393 88.2803 339.299 87.5449 339.205 86.7939C339.111 86.0429 339.017 85.3075 338.923 84.5878C336.827 86.7783 334.636 88.3116 332.352 89.1878C330.099 90.0952 327.768 90.549 325.358 90.549ZM330.381 81.7715C332.008 81.7715 333.526 81.3491 334.934 80.5042C336.342 79.628 337.484 78.5172 338.36 77.1716C338.36 76.2016 338.36 75.2472 338.36 74.3084C338.36 73.3383 338.36 72.3683 338.36 71.3982V48.3517C337.672 47.851 336.702 47.4286 335.45 47.0843C334.198 46.7088 332.884 46.5211 331.507 46.5211C328.566 46.5837 326.266 47.5068 324.607 49.2904C322.949 51.0741 321.775 53.3427 321.087 56.0964C320.43 58.8501 320.101 61.7447 320.101 64.78C320.101 67.5024 320.445 70.1622 321.134 72.7594C321.822 75.3567 322.918 77.5158 324.42 79.2369C325.922 80.9267 327.909 81.7715 330.381 81.7715ZM386.176 90.549C383.391 90.549 380.684 90.1891 378.055 89.4694C375.458 88.781 373.424 87.8891 371.953 86.7939L372.141 89.6571H364.819L364.443 73.1349H370.686C370.999 76.0764 372.548 78.5641 375.333 80.5981C378.118 82.6008 381.544 83.6021 385.612 83.6021C387.177 83.6021 388.663 83.2266 390.071 82.4756C391.511 81.7246 392.231 80.5042 392.231 78.8144C392.199 76.9682 391.229 75.5914 389.32 74.6839C387.443 73.7764 384.689 72.6186 381.059 71.2105C378.4 70.1779 375.74 69.067 373.08 67.8779C370.451 66.6888 368.261 65.0929 366.509 63.0902C364.756 61.0562 363.88 58.3182 363.88 54.8761C363.88 52.404 364.506 49.9789 365.758 47.6007C367.041 45.2225 369.012 43.2667 371.672 41.7334C374.332 40.1688 377.758 39.3865 381.951 39.3865C383.704 39.3865 385.675 39.6681 387.865 40.2314C390.087 40.7634 391.965 41.5769 393.498 42.6722V39.8559H400.773V56.8944H394.531C394.155 54.6727 393.357 52.7638 392.137 51.1679C390.948 49.5721 389.43 48.336 387.584 47.4598C385.769 46.5837 383.704 46.1456 381.388 46.1456C379.761 46.1456 378.29 46.5367 376.976 47.319C375.661 48.07 375.004 49.3687 375.004 51.2149C375.004 52.7169 375.521 53.8904 376.553 54.7352C377.586 55.5801 378.994 56.2998 380.778 56.8944C382.561 57.4889 384.548 58.1617 386.739 58.9127C389.993 60.0392 392.888 61.3379 395.422 62.8086C397.988 64.248 400.007 66.016 401.477 68.1126C402.948 70.1779 403.683 72.7125 403.683 75.7165C403.683 79.0335 402.839 81.8028 401.149 84.0246C399.49 86.215 397.316 87.8578 394.624 88.9531C391.965 90.017 389.148 90.549 386.176 90.549ZM429.703 90.549C427.199 90.549 424.79 90.1265 422.474 89.2816C420.19 88.4367 418.312 86.7 416.842 84.0715C415.402 81.443 414.698 77.4532 414.729 72.1023L414.917 48.9149H408.393V40.9355C410.396 40.9042 412.304 40.247 414.119 38.9641C415.965 37.6811 417.546 36.0226 418.86 33.9886C420.206 31.9234 421.097 29.7486 421.535 27.4642H428.67L428.576 40.9355H440.78V48.3517L428.576 48.6333L428.482 72.2901C428.482 74.4805 428.842 76.5771 429.562 78.5798C430.282 80.5824 431.846 81.5838 434.256 81.5838C435.163 81.5838 436.384 81.2709 437.917 80.645C439.481 79.9879 441.171 78.3764 442.986 75.8104L447.586 80.1757C445.302 83.5552 442.908 85.9803 440.405 87.451C437.901 88.8905 435.664 89.7667 433.692 90.0796C431.752 90.3925 430.422 90.549 429.703 90.549ZM477.151 89C477.025 88.0925 476.947 87.3415 476.916 86.747C476.885 86.1211 476.838 85.4014 476.775 84.5878C474.585 86.7783 472.269 88.3116 469.828 89.1878C467.419 90.0952 464.962 90.549 462.459 90.549C458.328 90.549 455.105 89.3286 452.79 86.8878C450.505 84.447 449.363 81.396 449.363 77.7349C449.363 74.6683 450.146 72.0554 451.71 69.8962C453.275 67.7371 455.356 65.9534 457.953 64.5453C460.55 63.1371 463.429 62.0732 466.589 61.3535C469.781 60.6338 472.989 60.2113 476.212 60.0862V55.0638C476.212 53.4053 475.993 51.9033 475.555 50.5578C475.148 49.2122 474.444 48.1639 473.442 47.4129C472.441 46.6306 471.049 46.2707 469.265 46.3333C468.013 46.3646 466.809 46.615 465.651 47.0843C464.524 47.5537 463.554 48.1952 462.741 49.0088C463.241 49.6033 463.554 50.2448 463.679 50.9333C463.836 51.5904 463.914 52.1693 463.914 52.67C463.914 53.9529 463.398 55.2828 462.365 56.6597C461.364 58.0053 459.721 58.6624 457.437 58.6311C455.528 58.5685 454.057 57.8957 453.024 56.6128C451.992 55.3298 451.475 53.8278 451.475 52.1067C451.475 49.5721 452.383 47.3503 454.198 45.4415C456.044 43.5327 458.5 42.0463 461.567 40.9824C464.634 39.9185 468.045 39.3865 471.8 39.3865C477.401 39.3865 481.766 40.8572 484.895 43.7987C488.025 46.7088 489.589 51.3557 489.589 57.7393C489.589 59.9297 489.573 61.7916 489.542 63.3249C489.511 64.8582 489.48 66.3915 489.448 67.9248C489.448 69.4581 489.448 71.32 489.448 73.5105C489.448 74.4179 489.417 75.7009 489.354 77.3594C489.323 78.9866 489.229 80.5199 489.073 81.9593C490.137 81.8654 491.279 81.8028 492.499 81.7715C493.72 81.709 494.658 81.6777 495.316 81.6777V89H477.151ZM476.118 66.8922C473.708 67.1112 471.502 67.6119 469.5 68.3942C467.528 69.1452 465.948 70.1622 464.759 71.4452C463.57 72.7282 462.991 74.2928 463.022 76.139C463.085 77.8913 463.664 79.1587 464.759 79.941C465.885 80.7233 467.137 81.1144 468.514 81.1144C469.953 81.1144 471.33 80.8015 472.644 80.1757C473.959 79.5498 475.117 78.7049 476.118 77.641C476.118 77.0152 476.118 76.3893 476.118 75.7635C476.118 75.1376 476.118 74.5118 476.118 73.886C476.118 72.7282 476.118 71.5703 476.118 70.4125C476.118 69.2234 476.118 68.05 476.118 66.8922ZM523.489 90.549C519.171 90.549 515.212 89.5945 511.614 87.6857C508.046 85.7456 505.183 82.945 503.024 79.2838C500.896 75.6227 499.832 71.2105 499.832 66.0473C499.832 61.197 500.88 56.7536 502.977 52.7169C505.105 48.6802 508.046 45.4572 511.801 43.0477C515.588 40.6069 519.937 39.3865 524.85 39.3865C530.952 39.3865 535.552 40.7477 538.65 43.4701C541.748 46.1612 543.297 49.1966 543.297 52.5761C543.297 54.4536 542.733 56.1121 541.607 57.5515C540.512 58.9597 538.931 59.695 536.866 59.7576C534.425 59.7889 532.72 59.1005 531.75 57.6923C530.811 56.2529 530.342 54.8604 530.342 53.5149C530.342 52.9516 530.436 52.2788 530.623 51.4965C530.811 50.7142 531.093 49.9789 531.468 49.2904C530.999 48.3517 530.311 47.6632 529.403 47.2252C528.527 46.7558 527.635 46.4585 526.728 46.3333C525.82 46.1769 525.069 46.1143 524.475 46.1456C521.408 46.3333 518.873 47.8823 516.871 50.7924C514.868 53.6713 513.867 57.8175 513.867 63.231C513.867 66.4228 514.273 69.4268 515.087 72.2431C515.901 75.0594 517.23 77.3594 519.077 79.143C520.954 80.8954 523.458 81.8341 526.587 81.9593C529.278 82.0845 531.906 81.4586 534.472 80.0818C537.038 78.7049 539.213 76.8743 540.997 74.59L545.409 78.9083C541.904 83.7273 538.259 86.8721 534.472 88.3429C530.686 89.8136 527.025 90.549 523.489 90.549ZM549.019 89V82.7572C550.834 82.7572 552.132 82.3974 552.915 81.6777C553.728 80.958 554.245 79.9566 554.464 78.6736C554.683 77.3907 554.792 75.9043 554.792 74.2145V34.6927C554.792 33.5349 554.824 32.205 554.886 30.703C554.949 29.1697 555.043 27.7146 555.168 26.3377C554.104 26.369 552.883 26.416 551.507 26.4785C550.161 26.5098 549.144 26.5568 548.456 26.6194V19.297C552.868 19.297 556.263 18.9685 558.641 18.3113C561.051 17.6542 562.553 17.0284 563.147 16.4338H568.451V60.2739H573.051L579.998 52.2945C580.812 51.387 581.484 50.6203 582.016 49.9945C582.58 49.3374 583.158 48.7585 583.753 48.2578H578.637V40.9355H600.275V47.0843C597.991 47.3347 595.988 47.8666 594.267 48.6802C592.546 49.4938 591.06 50.4482 589.808 51.5435C588.588 52.6074 587.524 53.6557 586.616 54.6883L580.467 61.5882C581.437 62.0889 582.376 62.7773 583.284 63.6535C584.222 64.4983 585.365 65.797 586.71 67.5493L593.141 76.0451C593.516 76.5145 594.001 77.1247 594.596 77.8757C595.222 78.6267 595.91 79.3777 596.661 80.1287C597.443 80.8484 598.288 81.4743 599.196 82.0062C600.103 82.5069 601.042 82.7572 602.012 82.7572V89H590.934C588.869 89 587.07 88.2803 585.537 86.8409C584.003 85.4014 582.251 83.3361 580.28 80.645C578.559 78.3294 576.759 75.8104 574.882 73.088C573.035 70.3656 571.627 68.3316 570.657 66.9861L568.451 67.0799V73.5105C568.451 74.4179 568.42 75.7009 568.357 77.3594C568.326 78.9866 568.232 80.5199 568.076 81.9593C569.077 81.8654 570.188 81.8028 571.408 81.7715C572.629 81.709 573.599 81.6777 574.318 81.6777V89H549.019Z" fill="black"/>
<path fill-rule="evenodd" clip-rule="evenodd" d="M45.7177 71.5184C45.7177 69.306 48.1375 67.928 50.0442 69.0501C48.1349 67.9265 45.7177 69.303 45.7177 71.5184Z" fill="#5400A9"/>
<path d="M7 69.3253L45.7177 93.2392V71.5184C45.7177 69.306 48.1375 67.928 50.0442 69.0501C52.5007 70.4957 55.3285 72.1632 57.9593 73.6382C61.8508 75.8202 63.9378 77.5813 66.5 77.5813L66.5 66.4784L7 35.1627V57.5746C7 59.6402 7.76988 61.6315 9.15931 63.1599C9.61597 63.6622 10.1325 64.1067 10.6974 64.4832L14.9713 67.3325L7 69.3253Z" fill="#6400CA"/>
<path d="M32.6886 15.6543C21.5554 8.74831 7 16.617 7 29.7182V35.1627L66.5 66.4784L66.5 34.0229C66.5 34.0229 63.9378 34.5933 32.6886 15.6543Z" fill="#7F00FF"/>
<path d="M45.7177 93.2392L7 69.3253V84.8504C7 89.9264 10.0633 94.5006 14.7569 96.4332L32.3528 103.679C38.7236 106.302 45.7177 101.618 45.7177 94.7283V93.2392Z" fill="#5400A9"/>
<path d="M66.5 61.6388V67.6172C65.1933 67.6172 63.9084 67.2823 62.768 66.6443L7 35.4474C7 34.8905 7.16484 34.346 7.47375 33.8827L7.56938 33.7392L7.74803 33.5382C9.02132 32.1058 11.0258 31.57 12.844 32.1761C13.1227 32.269 13.3916 32.3893 13.6467 32.5352L62.7775 60.649C63.9109 61.2976 65.1941 61.6388 66.5 61.6388Z" fill="#5201A5"/>
<path d="M45.7177 86.8851V93.5239L7 69.61V69.3254C7.04999 68.6779 7.26336 68.1428 7.55813 67.6674C8.66134 65.8881 11.3307 65.3886 13.2632 66.1938L45.7177 86.8851Z" fill="#370076"/>
<path fill-rule="evenodd" clip-rule="evenodd" d="M87.2823 71.5184C87.2823 69.306 84.8625 67.928 82.9558 69.0501C84.8651 67.9265 87.2823 69.303 87.2823 71.5184Z" fill="#5400A9"/>
<path d="M126 69.3253L87.2823 93.2392V71.5184C87.2823 69.306 84.8625 67.928 82.9558 69.0501C80.4993 70.4957 77.6715 72.1632 75.0407 73.6382C71.1492 75.8202 69.0622 77.5813 66.5 77.5813L66.5 66.4784L126 35.1627V57.5746C126 59.6402 125.23 61.6315 123.841 63.1599C123.384 63.6622 122.867 64.1067 122.303 64.4832L118.029 67.3325L126 69.3253Z" fill="#6400CA"/>
<path d="M100.311 15.6543C111.445 8.74831 126 16.617 126 29.7182V35.1627L66.5 66.4784L66.5 34.0229C66.5 34.0229 69.0622 34.5933 100.311 15.6543Z" fill="#7F00FF"/>
<path d="M87.2823 93.2392L126 69.3253V84.8504C126 89.9264 122.937 94.5006 118.243 96.4332L100.647 103.679C94.2764 106.302 87.2823 101.618 87.2823 94.7283V93.2392Z" fill="#5400A9"/>
<path d="M66.5 61.6388V67.6172C67.8067 67.6172 69.0916 67.2823 70.232 66.6443L126 35.4474C126 34.8905 125.835 34.346 125.526 33.8827L125.431 33.7392L125.252 33.5382C123.979 32.1058 121.974 31.57 120.156 32.1761C119.877 32.269 119.608 32.3893 119.353 32.5352L70.2225 60.649C69.0891 61.2976 67.8059 61.6388 66.5 61.6388Z" fill="#5201A5"/>
<path d="M87.2823 86.8851V93.5239L126 69.61V69.3254C125.95 68.6779 125.737 68.1428 125.442 67.6674C124.339 65.8881 121.669 65.3886 119.737 66.1938L87.2823 86.8851Z" fill="#370076"/>
</g>
<defs>
<clipPath id="clip0_1_2">
<rect width="614" height="109" fill="white"/>
</clipPath>
</defs>
</svg>
