<svg width="119" height="108" viewBox="0 0 119 108" fill="none" xmlns="http://www.w3.org/2000/svg">
<path fill-rule="evenodd" clip-rule="evenodd" d="M38.7177 70.5184C38.7177 68.306 41.1375 66.928 43.0442 68.0501C41.1349 66.9265 38.7177 68.303 38.7177 70.5184Z" fill="#03BA00"/>
<path d="M4.76837e-07 68.3253L38.7177 92.2392V70.5184C38.7177 68.306 41.1375 66.928 43.0442 68.0501C45.5007 69.4957 48.3285 71.1632 50.9593 72.6382C54.8508 74.8202 56.9378 76.5813 59.5 76.5813L59.5 65.4784L4.76837e-07 34.1627V56.5746C4.76837e-07 58.6402 0.769881 60.6315 2.15931 62.1599C2.61597 62.6622 3.13252 63.1067 3.69738 63.4832L7.97129 66.3325L4.76837e-07 68.3253Z" fill="#62DE00"/>
<path d="M25.6886 14.6543C14.5554 7.74831 4.76837e-07 15.617 4.76837e-07 28.7182V34.1627L59.5 65.4784L59.5 33.0229C59.5 33.0229 56.9378 33.5933 25.6886 14.6543Z" fill="#71FF00"/>
<path d="M38.7177 92.2392L4.76837e-07 68.3253V83.8504C4.76837e-07 88.9264 3.06329 93.5006 7.75692 95.4332L25.3528 102.679C31.7236 105.302 38.7177 100.618 38.7177 93.7283V92.2392Z" fill="#03BA00"/>
<path d="M59.5 60.6388V66.6172C58.1933 66.6172 56.9084 66.2823 55.768 65.6443L3.8147e-06 34.4474C3.8147e-06 33.8905 0.164845 33.346 0.473755 32.8827L0.569382 32.7392L0.748037 32.5382C2.02133 31.1058 4.02577 30.57 5.84397 31.1761C6.12275 31.269 6.39163 31.3893 6.64668 31.5352L55.7775 59.649C56.9109 60.2976 58.1941 60.6388 59.5 60.6388Z" fill="#03CF00"/>
<path d="M38.7177 85.8851V92.5239L3.8147e-06 68.61V68.3254C0.0499919 67.6779 0.263366 67.1428 0.558139 66.6674C1.66134 64.8881 4.33067 64.3886 6.26316 65.1938L38.7177 85.8851Z" fill="#019F17"/>
<path fill-rule="evenodd" clip-rule="evenodd" d="M80.2823 70.5184C80.2823 68.306 77.8625 66.928 75.9558 68.0501C77.8651 66.9265 80.2823 68.303 80.2823 70.5184Z" fill="#03BA00"/>
<path d="M119 68.3253L80.2823 92.2392V70.5184C80.2823 68.306 77.8625 66.928 75.9558 68.0501C73.4993 69.4957 70.6715 71.1632 68.0407 72.6382C64.1492 74.8202 62.0622 76.5813 59.5 76.5813L59.5 65.4784L119 34.1627V56.5746C119 58.6402 118.23 60.6315 116.841 62.1599C116.384 62.6622 115.867 63.1067 115.303 63.4832L111.029 66.3325L119 68.3253Z" fill="#62DE00"/>
<path d="M93.3114 14.6543C104.445 7.74831 119 15.617 119 28.7182V34.1627L59.5 65.4784L59.5 33.0229C59.5 33.0229 62.0622 33.5933 93.3114 14.6543Z" fill="#71FF00"/>
<path d="M80.2823 92.2392L119 68.3253V83.8504C119 88.9264 115.937 93.5006 111.243 95.4332L93.6472 102.679C87.2764 105.302 80.2823 100.618 80.2823 93.7283V92.2392Z" fill="#03BA00"/>
<path d="M59.5 60.6388V66.6172C60.8067 66.6172 62.0916 66.2823 63.232 65.6443L119 34.4474C119 33.8905 118.835 33.346 118.526 32.8827L118.431 32.7392L118.252 32.5382C116.979 31.1058 114.974 30.57 113.156 31.1761C112.877 31.269 112.608 31.3893 112.353 31.5352L63.2225 59.649C62.0891 60.2976 60.8059 60.6388 59.5 60.6388Z" fill="#03CF00"/>
<path d="M80.2823 85.8851V92.5239L119 68.61V68.3254C118.95 67.6779 118.737 67.1428 118.442 66.6674C117.339 64.8881 114.669 64.3886 112.737 65.1938L80.2823 85.8851Z" fill="#019F17"/>
</svg>
